<svg xmlns="http://www.w3.org/2000/svg" width="1800" height="1000" viewBox="0 0 1800 1000"><rect width="100%" height="100%" fill="#DDDDDD"/><path fill="#999999" d="M427.705 551.115h24.7v17.57h-76v-17.57h27.84v-80.09q0-4.75.28-9.79l-19.76 16.53q-1.71 1.33-3.37 1.67-1.66.33-3.13.05-1.48-.29-2.61-1-1.15-.72-1.72-1.57l-7.41-10.17 41.9-35.62h19.28v119.99Zm91.68.75q5.79 0 10.16-1.66t7.37-4.61q2.99-2.94 4.51-7.03 1.52-4.08 1.52-8.83 0-11.31-6.27-17.1-6.27-5.79-17.29-5.79t-17.29 5.79q-6.27 5.79-6.27 17.1 0 4.75 1.52 8.83 1.52 4.09 4.51 7.03 2.99 2.95 7.36 4.61 4.37 1.66 10.17 1.66Zm0-104.4q-5.23 0-9.03 1.61-3.8 1.62-6.31 4.33-2.52 2.7-3.71 6.22-1.19 3.51-1.19 7.41 0 4.09 1 7.93 1 3.85 3.37 6.84 2.38 2.99 6.27 4.8 3.9 1.8 9.6 1.8 5.7 0 9.59-1.8 3.9-1.81 6.27-4.8 2.38-2.99 3.38-6.84.99-3.84.99-7.93 0-3.9-1.23-7.41-1.24-3.52-3.71-6.22-2.47-2.71-6.27-4.33-3.8-1.61-9.02-1.61Zm23.18 49.59q12.54 4.08 18.52 12.49 5.99 8.41 5.99 20.57 0 9.12-3.47 16.53-3.47 7.41-9.74 12.64-6.27 5.22-15.05 8.07-8.79 2.85-19.43 2.85t-19.43-2.85q-8.79-2.85-15.06-8.07-6.27-5.23-9.73-12.64-3.47-7.41-3.47-16.53 0-12.16 5.98-20.57 5.99-8.41 18.53-12.49-9.98-4.18-14.96-11.87-4.99-7.7-4.99-18.53 0-7.79 3.18-14.53 3.18-6.75 8.88-11.74 5.7-4.98 13.64-7.79 7.93-2.8 17.43-2.8t17.43 2.8q7.93 2.81 13.63 7.79 5.7 4.99 8.89 11.74 3.18 6.74 3.18 14.53 0 10.83-4.99 18.53-4.99 7.69-14.96 11.87Zm137.37 2.94q0 17.96-3.85 31.21t-10.64 21.9q-6.79 8.64-16.05 12.87-9.27 4.23-20 4.23-10.74 0-19.9-4.23-9.17-4.23-15.92-12.87-6.74-8.65-10.54-21.9-3.8-13.25-3.8-31.21 0-18.04 3.8-31.25 3.8-13.2 10.54-21.85 6.75-8.65 15.92-12.87 9.16-4.23 19.9-4.23 10.73 0 20 4.23 9.26 4.22 16.05 12.87 6.79 8.65 10.64 21.85 3.85 13.21 3.85 31.25Zm-24.23 0q0-14.91-2.18-24.7-2.19-9.78-5.84-15.58-3.66-5.79-8.41-8.12-4.75-2.33-9.88-2.33-5.04 0-9.74 2.33t-8.31 8.12q-3.61 5.8-5.75 15.58-2.14 9.79-2.14 24.7 0 14.92 2.14 24.71 2.14 9.78 5.75 15.57 3.61 5.8 8.31 8.13 4.7 2.32 9.74 2.32 5.13 0 9.88-2.32 4.75-2.33 8.41-8.13 3.65-5.79 5.84-15.57 2.18-9.79 2.18-24.71Zm134.43 0q0 17.96-3.85 31.21t-10.64 21.9q-6.79 8.64-16.05 12.87-9.27 4.23-20 4.23-10.74 0-19.9-4.23-9.17-4.23-15.92-12.87-6.74-8.65-10.54-21.9-3.8-13.25-3.8-31.21 0-18.04 3.8-31.25 3.8-13.2 10.54-21.85 6.75-8.65 15.92-12.87 9.16-4.23 19.9-4.23 10.73 0 20 4.23 9.26 4.22 16.05 12.87 6.79 8.65 10.64 21.85 3.85 13.21 3.85 31.25Zm-24.23 0q0-14.91-2.18-24.7-2.19-9.78-5.84-15.58-3.66-5.79-8.41-8.12-4.75-2.33-9.88-2.33-5.04 0-9.74 2.33t-8.31 8.12q-3.61 5.8-5.75 15.58-2.14 9.79-2.14 24.7 0 14.92 2.14 24.71 2.14 9.78 5.75 15.57 3.61 5.8 8.31 8.13 4.7 2.32 9.74 2.32 5.13 0 9.88-2.32 4.75-2.33 8.41-8.13 3.65-5.79 5.84-15.57 2.18-9.79 2.18-24.71Zm175.09 37.24-12.45 12.26-32.2-32.21-32.49 32.4-12.45-12.25 32.49-32.59-30.97-30.97 12.35-12.35 30.97 30.97 30.78-30.78 12.54 12.35-30.87 30.88 32.3 32.29Zm130.05 13.88h24.7v17.57h-76v-17.57h27.84v-80.09q0-4.75.28-9.79l-19.76 16.53q-1.71 1.33-3.37 1.67-1.66.33-3.13.05-1.48-.29-2.62-1-1.14-.72-1.71-1.57l-7.41-10.17 41.9-35.62h19.28v119.99Zm142.03-51.12q0 17.96-3.85 31.21t-10.64 21.9q-6.79 8.64-16.05 12.87-9.27 4.23-20 4.23-10.74 0-19.9-4.23-9.17-4.23-15.92-12.87-6.74-8.65-10.54-21.9-3.8-13.25-3.8-31.21 0-18.04 3.8-31.25 3.8-13.2 10.54-21.85 6.75-8.65 15.92-12.87 9.16-4.23 19.9-4.23 10.73 0 20 4.23 9.26 4.22 16.05 12.87 6.79 8.65 10.64 21.85 3.85 13.21 3.85 31.25Zm-24.23 0q0-14.91-2.18-24.7-2.19-9.78-5.84-15.58-3.66-5.79-8.41-8.12-4.75-2.33-9.88-2.33-5.04 0-9.74 2.33t-8.31 8.12q-3.61 5.8-5.75 15.58-2.14 9.79-2.14 24.7 0 14.92 2.14 24.71 2.14 9.78 5.75 15.57 3.61 5.8 8.31 8.13 4.7 2.32 9.74 2.32 5.13 0 9.88-2.32 4.75-2.33 8.41-8.13 3.65-5.79 5.84-15.57 2.18-9.79 2.18-24.71Zm134.43 0q0 17.96-3.85 31.21t-10.64 21.9q-6.79 8.64-16.05 12.87-9.27 4.23-20 4.23-10.74 0-19.9-4.23-9.17-4.23-15.92-12.87-6.74-8.65-10.54-21.9-3.8-13.25-3.8-31.21 0-18.04 3.8-31.25 3.8-13.2 10.54-21.85 6.75-8.65 15.92-12.87 9.16-4.23 19.9-4.23 10.73 0 20 4.23 9.26 4.22 16.05 12.87 6.79 8.65 10.64 21.85 3.85 13.21 3.85 31.25Zm-24.23 0q0-14.91-2.18-24.7-2.19-9.78-5.84-15.58-3.66-5.79-8.41-8.12-4.75-2.33-9.88-2.33-5.04 0-9.74 2.33t-8.31 8.12q-3.61 5.8-5.75 15.58-2.14 9.79-2.14 24.7 0 14.92 2.14 24.71 2.14 9.78 5.75 15.57 3.61 5.8 8.31 8.13 4.7 2.32 9.74 2.32 5.13 0 9.88-2.32 4.75-2.33 8.41-8.13 3.65-5.79 5.84-15.57 2.18-9.79 2.18-24.71Zm134.43 0q0 17.96-3.85 31.21t-10.64 21.9q-6.79 8.64-16.05 12.87-9.27 4.23-20 4.23-10.74 0-19.9-4.23-9.17-4.23-15.92-12.87-6.74-8.65-10.54-21.9-3.8-13.25-3.8-31.21 0-18.04 3.8-31.25 3.8-13.2 10.54-21.85 6.75-8.65 15.92-12.87 9.16-4.23 19.9-4.23 10.73 0 20 4.23 9.26 4.22 16.05 12.87 6.79 8.65 10.64 21.85 3.85 13.21 3.85 31.25Zm-24.23 0q0-14.91-2.18-24.7-2.19-9.78-5.84-15.58-3.66-5.79-8.41-8.12-4.75-2.33-9.88-2.33-5.04 0-9.74 2.33t-8.31 8.12q-3.61 5.8-5.75 15.58-2.14 9.79-2.14 24.7 0 14.92 2.14 24.71 2.14 9.78 5.75 15.57 3.61 5.8 8.31 8.13 4.7 2.32 9.74 2.32 5.13 0 9.88-2.32 4.75-2.33 8.41-8.13 3.65-5.79 5.84-15.57 2.18-9.79 2.18-24.71Z"/></svg>