<svg xmlns="http://www.w3.org/2000/svg" width="880" height="500" viewBox="0 0 880 500"><rect width="100%" height="100%" fill="#DDDDDD"/><path fill="#999999" d="M207.17 281.945q3.57 0 6.26-1.03 2.69-1.02 4.53-2.84 1.85-1.81 2.78-4.32.94-2.52.94-5.45 0-6.96-3.86-10.53-3.86-3.56-10.65-3.56-6.79 0-10.65 3.56-3.86 3.57-3.86 10.53 0 2.93.94 5.45.93 2.51 2.78 4.32 1.84 1.82 4.53 2.84 2.69 1.03 6.26 1.03Zm0-64.3q-3.22 0-5.56 1-2.34.99-3.89 2.66-1.55 1.67-2.28 3.83-.73 2.17-.73 4.56 0 2.52.61 4.89.62 2.37 2.08 4.21 1.46 1.84 3.86 2.96 2.4 1.11 5.91 1.11 3.51 0 5.91-1.11 2.4-1.12 3.86-2.96 1.46-1.84 2.08-4.21.61-2.37.61-4.89 0-2.39-.76-4.56-.76-2.16-2.28-3.83-1.52-1.67-3.86-2.66-2.34-1-5.56-1Zm14.27 30.54q7.73 2.52 11.41 7.69 3.69 5.18 3.69 12.67 0 5.61-2.14 10.18-2.13 4.56-6 7.78-3.86 3.22-9.27 4.97-5.41 1.76-11.96 1.76-6.55 0-11.96-1.76-5.42-1.75-9.28-4.97-3.86-3.22-5.99-7.78-2.14-4.57-2.14-10.18 0-7.49 3.69-12.67 3.68-5.17 11.41-7.69-6.15-2.57-9.22-7.31-3.07-4.74-3.07-11.41 0-4.8 1.96-8.95 1.96-4.15 5.47-7.22 3.51-3.08 8.39-4.8 4.89-1.73 10.74-1.73 5.85 0 10.73 1.73 4.89 1.72 8.4 4.8 3.51 3.07 5.47 7.22t1.96 8.95q0 6.67-3.07 11.41t-9.22 7.31Zm53.59 33.76q3.57 0 6.26-1.03 2.69-1.02 4.53-2.84 1.85-1.81 2.78-4.32.94-2.52.94-5.45 0-6.96-3.86-10.53-3.86-3.56-10.65-3.56-6.79 0-10.65 3.56-3.86 3.57-3.86 10.53 0 2.93.94 5.45.93 2.51 2.78 4.32 1.84 1.82 4.53 2.84 2.69 1.03 6.26 1.03Zm0-64.3q-3.22 0-5.56 1-2.34.99-3.89 2.66-1.55 1.67-2.28 3.83-.73 2.17-.73 4.56 0 2.52.61 4.89.62 2.37 2.08 4.21 1.46 1.84 3.86 2.96 2.4 1.11 5.91 1.11 3.51 0 5.91-1.11 2.4-1.12 3.86-2.96 1.46-1.84 2.08-4.21.61-2.37.61-4.89 0-2.39-.76-4.56-.76-2.16-2.28-3.83-1.52-1.67-3.86-2.66-2.34-1-5.56-1Zm14.27 30.54q7.73 2.52 11.41 7.69 3.69 5.18 3.69 12.67 0 5.61-2.14 10.18-2.13 4.56-6 7.78-3.86 3.22-9.27 4.97-5.41 1.76-11.96 1.76-6.55 0-11.96-1.76-5.42-1.75-9.28-4.97-3.86-3.22-5.99-7.78-2.14-4.57-2.14-10.18 0-7.49 3.69-12.67 3.68-5.17 11.41-7.69-6.15-2.57-9.22-7.31-3.07-4.74-3.07-11.41 0-4.8 1.96-8.95 1.96-4.15 5.47-7.22 3.51-3.08 8.39-4.8 4.89-1.73 10.74-1.73 5.85 0 10.73 1.73 4.89 1.72 8.4 4.8 3.51 3.07 5.47 7.22t1.96 8.95q0 6.67-3.07 11.41t-9.22 7.31Zm84.59 1.81q0 11.06-2.37 19.22-2.36 8.16-6.55 13.49-4.18 5.32-9.88 7.92-5.71 2.61-12.32 2.61t-12.25-2.61q-5.65-2.6-9.8-7.92-4.16-5.33-6.5-13.49t-2.34-19.22q0-11.11 2.34-19.24 2.34-8.13 6.5-13.46 4.15-5.32 9.8-7.92 5.64-2.61 12.25-2.61t12.32 2.61q5.7 2.6 9.88 7.92 4.19 5.33 6.55 13.46 2.37 8.13 2.37 19.24Zm-14.91 0q0-9.18-1.35-15.21-1.34-6.02-3.6-9.59-2.25-3.57-5.17-5-2.93-1.43-6.09-1.43-3.1 0-5.99 1.43-2.9 1.43-5.12 5-2.23 3.57-3.54 9.59-1.32 6.03-1.32 15.21 0 9.19 1.32 15.21 1.31 6.03 3.54 9.6 2.22 3.57 5.12 5 2.89 1.43 5.99 1.43 3.16 0 6.09-1.43 2.92-1.43 5.17-5 2.26-3.57 3.6-9.6 1.35-6.02 1.35-15.21Zm107.81 22.94-7.66 7.54-19.83-19.83-20.01 19.95-7.66-7.55 20-20.06-19.07-19.07 7.61-7.61 19.07 19.07 18.95-18.95 7.72 7.6-19.01 19.02 19.89 19.89Zm61.49-52.13-2.99 17.61q2.81-.58 5.38-.85 2.58-.26 4.98-.26 6.67 0 11.76 1.99 5.08 1.99 8.54 5.5 3.45 3.51 5.2 8.22 1.76 4.71 1.76 10.15 0 6.72-2.37 12.28t-6.58 9.51q-4.21 3.95-9.98 6.11-5.76 2.17-12.55 2.17-3.97 0-7.54-.82t-6.7-2.2q-3.13-1.37-5.79-3.16-2.66-1.78-4.77-3.77l4.45-6.14q1.4-1.99 3.68-1.99 1.46 0 2.99.94 1.52.93 3.48 2.04 1.96 1.11 4.62 2.05 2.66.94 6.4.94 3.98 0 7.02-1.29 3.05-1.29 5.06-3.6 2.02-2.31 3.05-5.5 1.02-3.19 1.02-6.93 0-6.9-4.01-10.79-4-3.89-11.84-3.89-6.03 0-12.35 2.22l-9.01-2.57 7.02-41.07h41.77v6.14q0 3.1-1.93 5.03-1.93 1.93-6.55 1.93h-23.22Zm106.06 29.19q0 11.06-2.37 19.22-2.37 8.16-6.56 13.49-4.18 5.32-9.88 7.92-5.71 2.61-12.32 2.61t-12.25-2.61q-5.65-2.6-9.8-7.92-4.15-5.33-6.49-13.49t-2.34-19.22q0-11.11 2.34-19.24 2.34-8.13 6.49-13.46 4.15-5.32 9.8-7.92 5.64-2.61 12.25-2.61t12.32 2.61q5.7 2.6 9.88 7.92 4.19 5.33 6.56 13.46 2.37 8.13 2.37 19.24Zm-14.92 0q0-9.18-1.35-15.21-1.34-6.02-3.59-9.59-2.26-3.57-5.18-5-2.93-1.43-6.09-1.43-3.1 0-5.99 1.43-2.9 1.43-5.12 5-2.22 3.57-3.54 9.59-1.32 6.03-1.32 15.21 0 9.19 1.32 15.21 1.32 6.03 3.54 9.6 2.22 3.57 5.12 5 2.89 1.43 5.99 1.43 3.16 0 6.09-1.43 2.92-1.43 5.18-5 2.25-3.57 3.59-9.6 1.35-6.02 1.35-15.21Zm82.78 0q0 11.06-2.37 19.22-2.37 8.16-6.56 13.49-4.18 5.32-9.88 7.92-5.71 2.61-12.32 2.61t-12.25-2.61q-5.65-2.6-9.8-7.92-4.15-5.33-6.49-13.49t-2.34-19.22q0-11.11 2.34-19.24 2.34-8.13 6.49-13.46 4.15-5.32 9.8-7.92 5.64-2.61 12.25-2.61t12.32 2.61q5.7 2.6 9.88 7.92 4.19 5.33 6.56 13.46 2.37 8.13 2.37 19.24Zm-14.92 0q0-9.18-1.35-15.21-1.34-6.02-3.59-9.59-2.26-3.57-5.18-5-2.93-1.43-6.09-1.43-3.1 0-5.99 1.43-2.9 1.43-5.12 5-2.22 3.57-3.54 9.59-1.32 6.03-1.32 15.21 0 9.19 1.32 15.21 1.32 6.03 3.54 9.6 2.22 3.57 5.12 5 2.89 1.43 5.99 1.43 3.16 0 6.09-1.43 2.92-1.43 5.18-5 2.25-3.57 3.59-9.6 1.35-6.02 1.35-15.21Z"/></svg>